<?xml version="1.0" encoding="utf-8"?>
<!-- Generator: Adobe Illustrator 21.0.0, SVG Export Plug-In . SVG Version: 6.00 Build 0)  -->
<svg version="1.1" xmlns="http://www.w3.org/2000/svg" xmlns:xlink="http://www.w3.org/1999/xlink" x="0px" y="0px"
	 viewBox="0 0 500 500" style="enable-background:new 0 0 500 500;" xml:space="preserve">
<style type="text/css">
	.st0{fill:#FF0000;}
	.st1{fill:#C1272D;}
	.st2{fill:none;}
	.st3{fill:#FFFFFF;}
	.st4{font-family:'Copperplate';}
	.st5{font-size:61px;}
	.st6{fill:#0000FF;}
	.st7{font-size:55px;}
	.st8{fill:#FCEE21;}
	.st9{font-size:63px;}
	.st10{fill:#0000FF;stroke:#000000;stroke-width:14;stroke-miterlimit:10;}
	.st11{stroke:#000000;stroke-width:14;stroke-miterlimit:10;}
	.st12{font-size:47px;}
	.st13{font-size:69px;}
	.st14{font-size:40px;}
	.st15{font-size:36px;}
	.st16{font-size:45px;}
	.st17{font-size:52px;}
	.st18{font-size:56px;}
	.st19{fill:#F15A24;}
	.st20{font-size:81px;}
	.st21{font-size:77px;}
</style>
<g id="West_Ham_United_FC">
	<g id="Shield">
		<g>
			<path class="st0" d="M246,42.3c-16.1,0.7-32.3,1.1-48.3,2.3C151,48.3,105.3,57.4,60.1,69.5c-1.9,0.5-2.8,1.2-2.8,3.2
				c-0.1,3.2-0.4,6.5-0.5,9.7c-2.6,47.3,1.3,94,13.5,139.8c15.6,58.2,43.1,110,82.9,155.3c27,30.8,58.2,56.6,92.7,78.6
				c3,1.9,5.4,2,8.2-0.1c14.7-10.6,29.9-20.5,44-31.8c40.9-32.9,74.1-72.5,98.9-118.9c22.4-41.9,36.3-86.5,42.8-133.5
				c4.5-32.7,5.1-65.5,2.9-98.4c-0.2-2.3-0.8-3.4-3.3-3.9c-9.4-2-18.7-4.4-28.1-6.5C356.9,50.8,301.9,42.7,246,42.3z"/>
			<path d="M246,42.3c55.9,0.3,110.8,8.4,165.3,20.5c9.4,2.1,18.7,4.5,28.1,6.5c2.4,0.5,3.1,1.6,3.3,3.9c2.2,32.9,1.6,65.7-2.9,98.4
				c-6.5,47-20.4,91.7-42.8,133.5c-24.8,46.4-57.9,86-98.9,118.9c-14.1,11.3-29.3,21.2-44,31.8c-2.8,2-5.1,2-8.2,0.1
				c-34.5-22-65.7-47.8-92.7-78.6c-39.8-45.3-67.3-97.1-82.9-155.3C58,176.4,54.2,129.7,56.8,82.4c0.2-3.2,0.5-6.5,0.5-9.7
				c0-2,0.9-2.7,2.8-3.2c45.2-12.1,90.9-21.2,137.6-24.8C213.8,43.4,229.9,43.1,246,42.3z M243.1,67.5c-23,0.1-54.6,2.4-85.8,8
				c-24.4,4.3-48.6,10-72.9,14.9c-2.3,0.5-3,1.5-3,3.7c0,3.6-0.5,7.2-0.6,10.8c-1.2,28.5,0.1,56.8,4.8,85
				c6.5,38.9,18.9,75.7,38,110.2c29.6,53.4,71.4,95.1,122.7,127.7c2.4,1.5,4.2,1.5,6.6-0.1c20.2-12.9,39.3-27.3,56.8-43.7
				c42.2-39.5,72.7-86.4,90.9-141.3c8.4-25.3,13.6-51.3,16.2-77.8c2.3-23.6,2.5-47.3,0.8-71c-0.2-2.2-0.9-3.2-3.1-3.7
				c-7.8-1.8-15.5-3.9-23.3-5.8C345.3,73.6,299,67.4,243.1,67.5z"/>
			<path class="st1" d="M243.1,67.5c55.9,0,102.2,6.2,148,17c7.8,1.8,15.5,4,23.3,5.8c2.3,0.5,3,1.5,3.1,3.7
				c1.7,23.7,1.5,47.3-0.8,71c-2.6,26.5-7.9,52.5-16.2,77.8c-18.2,54.9-48.7,101.9-90.9,141.3c-17.5,16.4-36.6,30.7-56.8,43.7
				c-2.4,1.5-4.2,1.6-6.6,0.1c-51.3-32.6-93.1-74.3-122.7-127.7c-19.1-34.5-31.5-71.4-38-110.2c-4.7-28.2-5.9-56.5-4.8-85
				c0.1-3.6,0.6-7.2,0.6-10.8c0-2.2,0.8-3.2,3-3.7c24.3-5,48.5-10.6,72.9-14.9C188.5,69.9,220.1,67.5,243.1,67.5z"/>
		</g>
	</g>
	<rect x="12.5" y="136.2" class="st2" width="473.6" height="174.1"/>
	<text transform="matrix(1 0 0 1 82.4624 163.0845)"><tspan x="0" y="0" class="st3 st4 st5">WEST HAM</tspan><tspan x="50" y="73.2" class="st3 st4 st5">UNITED</tspan></text>
</g>
<g id="West_Bromwich_Albion_FC">
	<g id="Shield_1_">
		<g>
			<path class="st0" d="M246,42.3c-16.1,0.7-32.3,1.1-48.3,2.3C151,48.3,105.3,57.4,60.1,69.5c-1.9,0.5-2.8,1.2-2.8,3.2
				c-0.1,3.2-0.4,6.5-0.5,9.7c-2.6,47.3,1.3,94,13.5,139.8c15.6,58.2,43.1,110,82.9,155.3c27,30.8,58.2,56.6,92.7,78.6
				c3,1.9,5.4,2,8.2-0.1c14.7-10.6,29.9-20.5,44-31.8c40.9-32.9,74.1-72.5,98.9-118.9c22.4-41.9,36.3-86.5,42.8-133.5
				c4.5-32.7,5.1-65.5,2.9-98.4c-0.2-2.3-0.8-3.4-3.3-3.9c-9.4-2-18.7-4.4-28.1-6.5C356.9,50.8,301.9,42.7,246,42.3z"/>
			<path d="M246,42.3c55.9,0.3,110.8,8.4,165.3,20.5c9.4,2.1,18.7,4.5,28.1,6.5c2.4,0.5,3.1,1.6,3.3,3.9c2.2,32.9,1.6,65.7-2.9,98.4
				c-6.5,47-20.4,91.7-42.8,133.5c-24.8,46.4-57.9,86-98.9,118.9c-14.1,11.3-29.3,21.2-44,31.8c-2.8,2-5.1,2-8.2,0.1
				c-34.5-22-65.7-47.8-92.7-78.6c-39.8-45.3-67.3-97.1-82.9-155.3C58,176.4,54.2,129.7,56.8,82.4c0.2-3.2,0.5-6.5,0.5-9.7
				c0-2,0.9-2.7,2.8-3.2c45.2-12.1,90.9-21.2,137.6-24.8C213.8,43.4,229.9,43.1,246,42.3z M243.1,67.5c-23,0.1-54.6,2.4-85.8,8
				c-24.4,4.3-48.6,10-72.9,14.9c-2.3,0.5-3,1.5-3,3.7c0,3.6-0.5,7.2-0.6,10.8c-1.2,28.5,0.1,56.8,4.8,85
				c6.5,38.9,18.9,75.7,38,110.2c29.6,53.4,71.4,95.1,122.7,127.7c2.4,1.5,4.2,1.5,6.6-0.1c20.2-12.9,39.3-27.3,56.8-43.7
				c42.2-39.5,72.7-86.4,90.9-141.3c8.4-25.3,13.6-51.3,16.2-77.8c2.3-23.6,2.5-47.3,0.8-71c-0.2-2.2-0.9-3.2-3.1-3.7
				c-7.8-1.8-15.5-3.9-23.3-5.8C345.3,73.6,299,67.4,243.1,67.5z"/>
			<path class="st6" d="M243.1,67.5c55.9,0,102.2,6.2,148,17c7.8,1.8,15.5,4,23.3,5.8c2.3,0.5,3,1.5,3.1,3.7
				c1.7,23.7,1.5,47.3-0.8,71c-2.6,26.5-7.9,52.5-16.2,77.8c-18.2,54.9-48.7,101.9-90.9,141.3c-17.5,16.4-36.6,30.7-56.8,43.7
				c-2.4,1.5-4.2,1.6-6.6,0.1c-51.3-32.6-93.1-74.3-122.7-127.7c-19.1-34.5-31.5-71.4-38-110.2c-4.7-28.2-5.9-56.5-4.8-85
				c0.1-3.6,0.6-7.2,0.6-10.8c0-2.2,0.8-3.2,3-3.7c24.3-5,48.5-10.6,72.9-14.9C188.5,69.9,220.1,67.5,243.1,67.5z"/>
		</g>
	</g>
	<rect x="12.5" y="117.2" class="st2" width="473.6" height="174.1"/>
	<text transform="matrix(1 0 0 1 169.9102 141.4443)"><tspan x="0" y="0" class="st3 st4 st7">WEST</tspan><tspan x="-80.9" y="66" class="st3 st4 st7">BROMWICH</tspan><tspan x="-27.5" y="132" class="st3 st4 st7">ALBION</tspan></text>
</g>
<g id="Watford_FC">
	<g id="Shield_2_">
		<g>
			<path class="st0" d="M246,42.3c-16.1,0.7-32.3,1.1-48.3,2.3C151,48.3,105.3,57.4,60.1,69.5c-1.9,0.5-2.8,1.2-2.8,3.2
				c-0.1,3.2-0.4,6.5-0.5,9.7c-2.6,47.3,1.3,94,13.5,139.8c15.6,58.2,43.1,110,82.9,155.3c27,30.8,58.2,56.6,92.7,78.6
				c3,1.9,5.4,2,8.2-0.1c14.7-10.6,29.9-20.5,44-31.8c40.9-32.9,74.1-72.5,98.9-118.9c22.4-41.9,36.3-86.5,42.8-133.5
				c4.5-32.7,5.1-65.5,2.9-98.4c-0.2-2.3-0.8-3.4-3.3-3.9c-9.4-2-18.7-4.4-28.1-6.5C356.9,50.8,301.9,42.7,246,42.3z"/>
			<path d="M246,42.3c55.9,0.3,110.8,8.4,165.3,20.5c9.4,2.1,18.7,4.5,28.1,6.5c2.4,0.5,3.1,1.6,3.3,3.9c2.2,32.9,1.6,65.7-2.9,98.4
				c-6.5,47-20.4,91.7-42.8,133.5c-24.8,46.4-57.9,86-98.9,118.9c-14.1,11.3-29.3,21.2-44,31.8c-2.8,2-5.1,2-8.2,0.1
				c-34.5-22-65.7-47.8-92.7-78.6c-39.8-45.3-67.3-97.1-82.9-155.3C58,176.4,54.2,129.7,56.8,82.4c0.2-3.2,0.5-6.5,0.5-9.7
				c0-2,0.9-2.7,2.8-3.2c45.2-12.1,90.9-21.2,137.6-24.8C213.8,43.4,229.9,43.1,246,42.3z M243.1,67.5c-23,0.1-54.6,2.4-85.8,8
				c-24.4,4.3-48.6,10-72.9,14.9c-2.3,0.5-3,1.5-3,3.7c0,3.6-0.5,7.2-0.6,10.8c-1.2,28.5,0.1,56.8,4.8,85
				c6.5,38.9,18.9,75.7,38,110.2c29.6,53.4,71.4,95.1,122.7,127.7c2.4,1.5,4.2,1.5,6.6-0.1c20.2-12.9,39.3-27.3,56.8-43.7
				c42.2-39.5,72.7-86.4,90.9-141.3c8.4-25.3,13.6-51.3,16.2-77.8c2.3-23.6,2.5-47.3,0.8-71c-0.2-2.2-0.9-3.2-3.1-3.7
				c-7.8-1.8-15.5-3.9-23.3-5.8C345.3,73.6,299,67.4,243.1,67.5z"/>
			<path class="st8" d="M243.1,67.5c55.9,0,102.2,6.2,148,17c7.8,1.8,15.5,4,23.3,5.8c2.3,0.5,3,1.5,3.1,3.7
				c1.7,23.7,1.5,47.3-0.8,71c-2.6,26.5-7.9,52.5-16.2,77.8c-18.2,54.9-48.7,101.9-90.9,141.3c-17.5,16.4-36.6,30.7-56.8,43.7
				c-2.4,1.5-4.2,1.6-6.6,0.1c-51.3-32.6-93.1-74.3-122.7-127.7c-19.1-34.5-31.5-71.4-38-110.2c-4.7-28.2-5.9-56.5-4.8-85
				c0.1-3.6,0.6-7.2,0.6-10.8c0-2.2,0.8-3.2,3-3.7c24.3-5,48.5-10.6,72.9-14.9C188.5,69.9,220.1,67.5,243.1,67.5z"/>
		</g>
	</g>
	<rect x="12.5" y="161.2" class="st2" width="473.6" height="174.1"/>
	<text transform="matrix(1 0 0 1 90.1265 188.9644)" class="st4 st9">WATFORD</text>
</g>
<g id="Tottenham_Hotspur_FC">
	<circle class="st10" cx="250" cy="250" r="202"/>
	<rect x="22.5" y="199.2" class="st2" width="473.6" height="174.1"/>
	<text transform="matrix(1 0 0 1 85.1729 223.4443)"><tspan x="0" y="0" class="st3 st4 st7">TOTTENHAM</tspan><tspan x="38.2" y="66" class="st3 st4 st7">HOTSPUR</tspan></text>
</g>
<g id="Swansea_City_FC">
	<circle class="st11" cx="250" cy="250" r="202"/>
	<rect x="13.5" y="200.2" class="st2" width="473.6" height="174.1"/>
	<text transform="matrix(1 0 0 1 91.063 227.9644)"><tspan x="0" y="0" class="st3 st4 st9">SWANSEA</tspan><tspan x="87.6" y="75.6" class="st3 st4 st9">CITY</tspan></text>
</g>
<g id="Sunderland__AFC">
	<g id="Shield_3_">
		<g>
			<path class="st0" d="M246,42.3c-16.1,0.7-32.3,1.1-48.3,2.3C151,48.3,105.3,57.4,60.1,69.5c-1.9,0.5-2.8,1.2-2.8,3.2
				c-0.1,3.2-0.4,6.5-0.5,9.7c-2.6,47.3,1.3,94,13.5,139.8c15.6,58.2,43.1,110,82.9,155.3c27,30.8,58.2,56.6,92.7,78.6
				c3,1.9,5.4,2,8.2-0.1c14.7-10.6,29.9-20.5,44-31.8c40.9-32.9,74.1-72.5,98.9-118.9c22.4-41.9,36.3-86.5,42.8-133.5
				c4.5-32.7,5.1-65.5,2.9-98.4c-0.2-2.3-0.8-3.4-3.3-3.9c-9.4-2-18.7-4.4-28.1-6.5C356.9,50.8,301.9,42.7,246,42.3z"/>
			<path d="M246,42.3c55.9,0.3,110.8,8.4,165.3,20.5c9.4,2.1,18.7,4.5,28.1,6.5c2.4,0.5,3.1,1.6,3.3,3.9c2.2,32.9,1.6,65.7-2.9,98.4
				c-6.5,47-20.4,91.7-42.8,133.5c-24.8,46.4-57.9,86-98.9,118.9c-14.1,11.3-29.3,21.2-44,31.8c-2.8,2-5.1,2-8.2,0.1
				c-34.5-22-65.7-47.8-92.7-78.6c-39.8-45.3-67.3-97.1-82.9-155.3C58,176.4,54.2,129.7,56.8,82.4c0.2-3.2,0.5-6.5,0.5-9.7
				c0-2,0.9-2.7,2.8-3.2c45.2-12.1,90.9-21.2,137.6-24.8C213.8,43.4,229.9,43.1,246,42.3z M243.1,67.5c-23,0.1-54.6,2.4-85.8,8
				c-24.4,4.3-48.6,10-72.9,14.9c-2.3,0.5-3,1.5-3,3.7c0,3.6-0.5,7.2-0.6,10.8c-1.2,28.5,0.1,56.8,4.8,85
				c6.5,38.9,18.9,75.7,38,110.2c29.6,53.4,71.4,95.1,122.7,127.7c2.4,1.5,4.2,1.5,6.6-0.1c20.2-12.9,39.3-27.3,56.8-43.7
				c42.2-39.5,72.7-86.4,90.9-141.3c8.4-25.3,13.6-51.3,16.2-77.8c2.3-23.6,2.5-47.3,0.8-71c-0.2-2.2-0.9-3.2-3.1-3.7
				c-7.8-1.8-15.5-3.9-23.3-5.8C345.3,73.6,299,67.4,243.1,67.5z"/>
			<path class="st0" d="M243.1,67.5c55.9,0,102.2,6.2,148,17c7.8,1.8,15.5,4,23.3,5.8c2.3,0.5,3,1.5,3.1,3.7
				c1.7,23.7,1.5,47.3-0.8,71c-2.6,26.5-7.9,52.5-16.2,77.8c-18.2,54.9-48.7,101.9-90.9,141.3c-17.5,16.4-36.6,30.7-56.8,43.7
				c-2.4,1.5-4.2,1.6-6.6,0.1c-51.3-32.6-93.1-74.3-122.7-127.7c-19.1-34.5-31.5-71.4-38-110.2c-4.7-28.2-5.9-56.5-4.8-85
				c0.1-3.6,0.6-7.2,0.6-10.8c0-2.2,0.8-3.2,3-3.7c24.3-5,48.5-10.6,72.9-14.9C188.5,69.9,220.1,67.5,243.1,67.5z"/>
		</g>
	</g>
	<rect x="12.5" y="163.2" class="st2" width="473.6" height="174.1"/>
	<text transform="matrix(1 0 0 1 83.543 183.9243)" class="st3 st4 st12">SUNDERLAND</text>
</g>
<g id="Stoke_City_FC">
	<g id="Shield_4_">
		<g>
			<path class="st0" d="M246,42.3c-16.1,0.7-32.3,1.1-48.3,2.3C151,48.3,105.3,57.4,60.1,69.5c-1.9,0.5-2.8,1.2-2.8,3.2
				c-0.1,3.2-0.4,6.5-0.5,9.7c-2.6,47.3,1.3,94,13.5,139.8c15.6,58.2,43.1,110,82.9,155.3c27,30.8,58.2,56.6,92.7,78.6
				c3,1.9,5.4,2,8.2-0.1c14.7-10.6,29.9-20.5,44-31.8c40.9-32.9,74.1-72.5,98.9-118.9c22.4-41.9,36.3-86.5,42.8-133.5
				c4.5-32.7,5.1-65.5,2.9-98.4c-0.2-2.3-0.8-3.4-3.3-3.9c-9.4-2-18.7-4.4-28.1-6.5C356.9,50.8,301.9,42.7,246,42.3z"/>
			<path d="M246,42.3c55.9,0.3,110.8,8.4,165.3,20.5c9.4,2.1,18.7,4.5,28.1,6.5c2.4,0.5,3.1,1.6,3.3,3.9c2.2,32.9,1.6,65.7-2.9,98.4
				c-6.5,47-20.4,91.7-42.8,133.5c-24.8,46.4-57.9,86-98.9,118.9c-14.1,11.3-29.3,21.2-44,31.8c-2.8,2-5.1,2-8.2,0.1
				c-34.5-22-65.7-47.8-92.7-78.6c-39.8-45.3-67.3-97.1-82.9-155.3C58,176.4,54.2,129.7,56.8,82.4c0.2-3.2,0.5-6.5,0.5-9.7
				c0-2,0.9-2.7,2.8-3.2c45.2-12.1,90.9-21.2,137.6-24.8C213.8,43.4,229.9,43.1,246,42.3z M243.1,67.5c-23,0.1-54.6,2.4-85.8,8
				c-24.4,4.3-48.6,10-72.9,14.9c-2.3,0.5-3,1.5-3,3.7c0,3.6-0.5,7.2-0.6,10.8c-1.2,28.5,0.1,56.8,4.8,85
				c6.5,38.9,18.9,75.7,38,110.2c29.6,53.4,71.4,95.1,122.7,127.7c2.4,1.5,4.2,1.5,6.6-0.1c20.2-12.9,39.3-27.3,56.8-43.7
				c42.2-39.5,72.7-86.4,90.9-141.3c8.4-25.3,13.6-51.3,16.2-77.8c2.3-23.6,2.5-47.3,0.8-71c-0.2-2.2-0.9-3.2-3.1-3.7
				c-7.8-1.8-15.5-3.9-23.3-5.8C345.3,73.6,299,67.4,243.1,67.5z"/>
			<path class="st0" d="M243.1,67.5c55.9,0,102.2,6.2,148,17c7.8,1.8,15.5,4,23.3,5.8c2.3,0.5,3,1.5,3.1,3.7
				c1.7,23.7,1.5,47.3-0.8,71c-2.6,26.5-7.9,52.5-16.2,77.8c-18.2,54.9-48.7,101.9-90.9,141.3c-17.5,16.4-36.6,30.7-56.8,43.7
				c-2.4,1.5-4.2,1.6-6.6,0.1c-51.3-32.6-93.1-74.3-122.7-127.7c-19.1-34.5-31.5-71.4-38-110.2c-4.7-28.2-5.9-56.5-4.8-85
				c0.1-3.6,0.6-7.2,0.6-10.8c0-2.2,0.8-3.2,3-3.7c24.3-5,48.5-10.6,72.9-14.9C188.5,69.9,220.1,67.5,243.1,67.5z"/>
		</g>
	</g>
	<rect x="12.5" y="163.2" class="st2" width="473.6" height="174.1"/>
	<text transform="matrix(1 0 0 1 132.4028 193.604)"><tspan x="0" y="0" class="st3 st4 st13">STOKE</tspan><tspan x="38.4" y="82.8" class="st3 st4 st13">CITY</tspan></text>
</g>
<g id="Southampton_FC">
	<g id="Shield_5_">
		<g>
			<path class="st0" d="M246,42.3c-16.1,0.7-32.3,1.1-48.3,2.3C151,48.3,105.3,57.4,60.1,69.5c-1.9,0.5-2.8,1.2-2.8,3.2
				c-0.1,3.2-0.4,6.5-0.5,9.7c-2.6,47.3,1.3,94,13.5,139.8c15.6,58.2,43.1,110,82.9,155.3c27,30.8,58.2,56.6,92.7,78.6
				c3,1.9,5.4,2,8.2-0.1c14.7-10.6,29.9-20.5,44-31.8c40.9-32.9,74.1-72.5,98.9-118.9c22.4-41.9,36.3-86.5,42.8-133.5
				c4.5-32.7,5.1-65.5,2.9-98.4c-0.2-2.3-0.8-3.4-3.3-3.9c-9.4-2-18.7-4.4-28.1-6.5C356.9,50.8,301.9,42.7,246,42.3z"/>
			<path d="M246,42.3c55.9,0.3,110.8,8.4,165.3,20.5c9.4,2.1,18.7,4.5,28.1,6.5c2.4,0.5,3.1,1.6,3.3,3.9c2.2,32.9,1.6,65.7-2.9,98.4
				c-6.5,47-20.4,91.7-42.8,133.5c-24.8,46.4-57.9,86-98.9,118.9c-14.1,11.3-29.3,21.2-44,31.8c-2.8,2-5.1,2-8.2,0.1
				c-34.5-22-65.7-47.8-92.7-78.6c-39.8-45.3-67.3-97.1-82.9-155.3C58,176.4,54.2,129.7,56.8,82.4c0.2-3.2,0.5-6.5,0.5-9.7
				c0-2,0.9-2.7,2.8-3.2c45.2-12.1,90.9-21.2,137.6-24.8C213.8,43.4,229.9,43.1,246,42.3z M243.1,67.5c-23,0.1-54.6,2.4-85.8,8
				c-24.4,4.3-48.6,10-72.9,14.9c-2.3,0.5-3,1.5-3,3.7c0,3.6-0.5,7.2-0.6,10.8c-1.2,28.5,0.1,56.8,4.8,85
				c6.5,38.9,18.9,75.7,38,110.2c29.6,53.4,71.4,95.1,122.7,127.7c2.4,1.5,4.2,1.5,6.6-0.1c20.2-12.9,39.3-27.3,56.8-43.7
				c42.2-39.5,72.7-86.4,90.9-141.3c8.4-25.3,13.6-51.3,16.2-77.8c2.3-23.6,2.5-47.3,0.8-71c-0.2-2.2-0.9-3.2-3.1-3.7
				c-7.8-1.8-15.5-3.9-23.3-5.8C345.3,73.6,299,67.4,243.1,67.5z"/>
			<path class="st0" d="M243.1,67.5c55.9,0,102.2,6.2,148,17c7.8,1.8,15.5,4,23.3,5.8c2.3,0.5,3,1.5,3.1,3.7
				c1.7,23.7,1.5,47.3-0.8,71c-2.6,26.5-7.9,52.5-16.2,77.8c-18.2,54.9-48.7,101.9-90.9,141.3c-17.5,16.4-36.6,30.7-56.8,43.7
				c-2.4,1.5-4.2,1.6-6.6,0.1c-51.3-32.6-93.1-74.3-122.7-127.7c-19.1-34.5-31.5-71.4-38-110.2c-4.7-28.2-5.9-56.5-4.8-85
				c0.1-3.6,0.6-7.2,0.6-10.8c0-2.2,0.8-3.2,3-3.7c24.3-5,48.5-10.6,72.9-14.9C188.5,69.9,220.1,67.5,243.1,67.5z"/>
		</g>
	</g>
	<rect x="12.5" y="173.2" class="st2" width="473.6" height="174.1"/>
	<text transform="matrix(1 0 0 1 91.5581 190.8447)" class="st3 st4 st14">SOUTHAMPTON</text>
</g>
<g id="Middlesbrough_FC">
	<g id="Shield_6_">
		<g>
			<path class="st0" d="M246,40.3c-16.1,0.7-32.3,1.1-48.3,2.3C151,46.3,105.3,55.4,60.1,67.5c-1.9,0.5-2.8,1.2-2.8,3.2
				c-0.1,3.2-0.4,6.5-0.5,9.7c-2.6,47.3,1.3,94,13.5,139.8c15.6,58.2,43.1,110,82.9,155.3c27,30.8,58.2,56.6,92.7,78.6
				c3,1.9,5.4,2,8.2-0.1c14.7-10.6,29.9-20.5,44-31.8c40.9-32.9,74.1-72.5,98.9-118.9c22.4-41.9,36.3-86.5,42.8-133.5
				c4.5-32.7,5.1-65.5,2.9-98.4c-0.2-2.3-0.8-3.4-3.3-3.9c-9.4-2-18.7-4.4-28.1-6.5C356.9,48.8,301.9,40.7,246,40.3z"/>
			<path d="M246,40.3c55.9,0.3,110.8,8.4,165.3,20.5c9.4,2.1,18.7,4.5,28.1,6.5c2.4,0.5,3.1,1.6,3.3,3.9c2.2,32.9,1.6,65.7-2.9,98.4
				c-6.5,47-20.4,91.7-42.8,133.5c-24.8,46.4-57.9,86-98.9,118.9c-14.1,11.3-29.3,21.2-44,31.8c-2.8,2-5.1,2-8.2,0.1
				c-34.5-22-65.7-47.8-92.7-78.6c-39.8-45.3-67.3-97.1-82.9-155.3C58,174.4,54.2,127.7,56.8,80.4c0.2-3.2,0.5-6.5,0.5-9.7
				c0-2,0.9-2.7,2.8-3.2c45.2-12.1,90.9-21.2,137.6-24.8C213.8,41.4,229.9,41.1,246,40.3z M243.1,65.5c-23,0.1-54.6,2.4-85.8,8
				c-24.4,4.3-48.6,10-72.9,14.9c-2.3,0.5-3,1.5-3,3.7c0,3.6-0.5,7.2-0.6,10.8c-1.2,28.5,0.1,56.8,4.8,85
				c6.5,38.9,18.9,75.7,38,110.2c29.6,53.4,71.4,95.1,122.7,127.7c2.4,1.5,4.2,1.5,6.6-0.1c20.2-12.9,39.3-27.3,56.8-43.7
				c42.2-39.5,72.7-86.4,90.9-141.3c8.4-25.3,13.6-51.3,16.2-77.8c2.3-23.6,2.5-47.3,0.8-71c-0.2-2.2-0.9-3.2-3.1-3.7
				c-7.8-1.8-15.5-3.9-23.3-5.8C345.3,71.6,299,65.4,243.1,65.5z"/>
			<path class="st0" d="M243.1,65.5c55.9,0,102.2,6.2,148,17c7.8,1.8,15.5,4,23.3,5.8c2.3,0.5,3,1.5,3.1,3.7
				c1.7,23.7,1.5,47.3-0.8,71c-2.6,26.5-7.9,52.5-16.2,77.8c-18.2,54.9-48.7,101.9-90.9,141.3c-17.5,16.4-36.6,30.7-56.8,43.7
				c-2.4,1.5-4.2,1.6-6.6,0.1c-51.3-32.6-93.1-74.3-122.7-127.7c-19.1-34.5-31.5-71.4-38-110.2c-4.7-28.2-5.9-56.5-4.8-85
				c0.1-3.6,0.6-7.2,0.6-10.8c0-2.2,0.8-3.2,3-3.7c24.3-5,48.5-10.6,72.9-14.9C188.5,67.9,220.1,65.5,243.1,65.5z"/>
		</g>
	</g>
	<rect x="12.5" y="168.2" class="st2" width="473.6" height="174.1"/>
	<text transform="matrix(1 0 0 1 87.377 184.0845)" class="st3 st4 st15">MIDDLESBROUGH</text>
</g>
<g id="Manchester_United_FC">
	<g id="Shield_7_">
		<g>
			<path class="st0" d="M246,42.3c-16.1,0.7-32.3,1.1-48.3,2.3C151,48.3,105.3,57.4,60.1,69.5c-1.9,0.5-2.8,1.2-2.8,3.2
				c-0.1,3.2-0.4,6.5-0.5,9.7c-2.6,47.3,1.3,94,13.5,139.8c15.6,58.2,43.1,110,82.9,155.3c27,30.8,58.2,56.6,92.7,78.6
				c3,1.9,5.4,2,8.2-0.1c14.7-10.6,29.9-20.5,44-31.8c40.9-32.9,74.1-72.5,98.9-118.9c22.4-41.9,36.3-86.5,42.8-133.5
				c4.5-32.7,5.1-65.5,2.9-98.4c-0.2-2.3-0.8-3.4-3.3-3.9c-9.4-2-18.7-4.4-28.1-6.5C356.9,50.8,301.9,42.7,246,42.3z"/>
			<path d="M246,42.3c55.9,0.3,110.8,8.4,165.3,20.5c9.4,2.1,18.7,4.5,28.1,6.5c2.4,0.5,3.1,1.6,3.3,3.9c2.2,32.9,1.6,65.7-2.9,98.4
				c-6.5,47-20.4,91.7-42.8,133.5c-24.8,46.4-57.9,86-98.9,118.9c-14.1,11.3-29.3,21.2-44,31.8c-2.8,2-5.1,2-8.2,0.1
				c-34.5-22-65.7-47.8-92.7-78.6c-39.8-45.3-67.3-97.1-82.9-155.3C58,176.4,54.2,129.7,56.8,82.4c0.2-3.2,0.5-6.5,0.5-9.7
				c0-2,0.9-2.7,2.8-3.2c45.2-12.1,90.9-21.2,137.6-24.8C213.8,43.4,229.9,43.1,246,42.3z M243.1,67.5c-23,0.1-54.6,2.4-85.8,8
				c-24.4,4.3-48.6,10-72.9,14.9c-2.3,0.5-3,1.5-3,3.7c0,3.6-0.5,7.2-0.6,10.8c-1.2,28.5,0.1,56.8,4.8,85
				c6.5,38.9,18.9,75.7,38,110.2c29.6,53.4,71.4,95.1,122.7,127.7c2.4,1.5,4.2,1.5,6.6-0.1c20.2-12.9,39.3-27.3,56.8-43.7
				c42.2-39.5,72.7-86.4,90.9-141.3c8.4-25.3,13.6-51.3,16.2-77.8c2.3-23.6,2.5-47.3,0.8-71c-0.2-2.2-0.9-3.2-3.1-3.7
				c-7.8-1.8-15.5-3.9-23.3-5.8C345.3,73.6,299,67.4,243.1,67.5z"/>
			<path class="st8" d="M243.1,67.5c55.9,0,102.2,6.2,148,17c7.8,1.8,15.5,4,23.3,5.8c2.3,0.5,3,1.5,3.1,3.7
				c1.7,23.7,1.5,47.3-0.8,71c-2.6,26.5-7.9,52.5-16.2,77.8c-18.2,54.9-48.7,101.9-90.9,141.3c-17.5,16.4-36.6,30.7-56.8,43.7
				c-2.4,1.5-4.2,1.6-6.6,0.1c-51.3-32.6-93.1-74.3-122.7-127.7c-19.1-34.5-31.5-71.4-38-110.2c-4.7-28.2-5.9-56.5-4.8-85
				c0.1-3.6,0.6-7.2,0.6-10.8c0-2.2,0.8-3.2,3-3.7c24.3-5,48.5-10.6,72.9-14.9C188.5,69.9,220.1,67.5,243.1,67.5z"/>
		</g>
	</g>
	<rect x="13.5" y="163.2" class="st2" width="473.6" height="174.1"/>
	<text transform="matrix(1 0 0 1 90.3384 183.0444)"><tspan x="0" y="0" class="st4 st16">MANCHESTER</tspan><tspan x="39.3" y="75.6" class="st4 st9">UNITED</tspan></text>
</g>
<g id="Manchester_City_FC">
	<circle class="st10" cx="250" cy="250" r="202"/>
	<rect x="12.5" y="211.2" class="st2" width="473.6" height="174.1"/>
	<text transform="matrix(1 0 0 1 64.4468 234.1245)"><tspan x="0" y="0" class="st3 st4 st17">MANCHESTER</tspan><tspan x="113.2" y="75.6" class="st3 st4 st9">CITY</tspan></text>
</g>
<g id="Liverpool_FC">
	<g id="Shield_8_">
		<g>
			<path class="st0" d="M246,42.3c-16.1,0.7-32.3,1.1-48.3,2.3C151,48.3,105.3,57.4,60.1,69.5c-1.9,0.5-2.8,1.2-2.8,3.2
				c-0.1,3.2-0.4,6.5-0.5,9.7c-2.6,47.3,1.3,94,13.5,139.8c15.6,58.2,43.1,110,82.9,155.3c27,30.8,58.2,56.6,92.7,78.6
				c3,1.9,5.4,2,8.2-0.1c14.7-10.6,29.9-20.5,44-31.8c40.9-32.9,74.1-72.5,98.9-118.9c22.4-41.9,36.3-86.5,42.8-133.5
				c4.5-32.7,5.1-65.5,2.9-98.4c-0.2-2.3-0.8-3.4-3.3-3.9c-9.4-2-18.7-4.4-28.1-6.5C356.9,50.8,301.9,42.7,246,42.3z"/>
			<path d="M246,42.3c55.9,0.3,110.8,8.4,165.3,20.5c9.4,2.1,18.7,4.5,28.1,6.5c2.4,0.5,3.1,1.6,3.3,3.9c2.2,32.9,1.6,65.7-2.9,98.4
				c-6.5,47-20.4,91.7-42.8,133.5c-24.8,46.4-57.9,86-98.9,118.9c-14.1,11.3-29.3,21.2-44,31.8c-2.8,2-5.1,2-8.2,0.1
				c-34.5-22-65.7-47.8-92.7-78.6c-39.8-45.3-67.3-97.1-82.9-155.3C58,176.4,54.2,129.7,56.8,82.4c0.2-3.2,0.5-6.5,0.5-9.7
				c0-2,0.9-2.7,2.8-3.2c45.2-12.1,90.9-21.2,137.6-24.8C213.8,43.4,229.9,43.1,246,42.3z M243.1,67.5c-23,0.1-54.6,2.4-85.8,8
				c-24.4,4.3-48.6,10-72.9,14.9c-2.3,0.5-3,1.5-3,3.7c0,3.6-0.5,7.2-0.6,10.8c-1.2,28.5,0.1,56.8,4.8,85
				c6.5,38.9,18.9,75.7,38,110.2c29.6,53.4,71.4,95.1,122.7,127.7c2.4,1.5,4.2,1.5,6.6-0.1c20.2-12.9,39.3-27.3,56.8-43.7
				c42.2-39.5,72.7-86.4,90.9-141.3c8.4-25.3,13.6-51.3,16.2-77.8c2.3-23.6,2.5-47.3,0.8-71c-0.2-2.2-0.9-3.2-3.1-3.7
				c-7.8-1.8-15.5-3.9-23.3-5.8C345.3,73.6,299,67.4,243.1,67.5z"/>
			<path class="st0" d="M243.1,67.5c55.9,0,102.2,6.2,148,17c7.8,1.8,15.5,4,23.3,5.8c2.3,0.5,3,1.5,3.1,3.7
				c1.7,23.7,1.5,47.3-0.8,71c-2.6,26.5-7.9,52.5-16.2,77.8c-18.2,54.9-48.7,101.9-90.9,141.3c-17.5,16.4-36.6,30.7-56.8,43.7
				c-2.4,1.5-4.2,1.6-6.6,0.1c-51.3-32.6-93.1-74.3-122.7-127.7c-19.1-34.5-31.5-71.4-38-110.2c-4.7-28.2-5.9-56.5-4.8-85
				c0.1-3.6,0.6-7.2,0.6-10.8c0-2.2,0.8-3.2,3-3.7c24.3-5,48.5-10.6,72.9-14.9C188.5,69.9,220.1,67.5,243.1,67.5z"/>
		</g>
	</g>
	<rect x="12.5" y="156.2" class="st2" width="473.6" height="174.1"/>
	<text transform="matrix(1 0 0 1 86.0063 180.8843)" class="st3 st4 st18">LIVERPOOL</text>
</g>
<g id="Leicester_City_FC">
	<circle class="st10" cx="250" cy="250" r="202"/>
	<rect x="12.5" y="198.2" class="st2" width="473.6" height="174.1"/>
	<text transform="matrix(1 0 0 1 70.8486 225.9644)"><tspan x="0" y="0" class="st3 st4 st9">LEICESTER</tspan><tspan x="106.8" y="75.6" class="st3 st4 st9">CITY</tspan></text>
</g>
<g id="Hull_City_AFC">
	<g id="Shield_9_">
		<g>
			<path class="st0" d="M246,42.3c-16.1,0.7-32.3,1.1-48.3,2.3C151,48.3,105.3,57.4,60.1,69.5c-1.9,0.5-2.8,1.2-2.8,3.2
				c-0.1,3.2-0.4,6.5-0.5,9.7c-2.6,47.3,1.3,94,13.5,139.8c15.6,58.2,43.1,110,82.9,155.3c27,30.8,58.2,56.6,92.7,78.6
				c3,1.9,5.4,2,8.2-0.1c14.7-10.6,29.9-20.5,44-31.8c40.9-32.9,74.1-72.5,98.9-118.9c22.4-41.9,36.3-86.5,42.8-133.5
				c4.5-32.7,5.1-65.5,2.9-98.4c-0.2-2.3-0.8-3.4-3.3-3.9c-9.4-2-18.7-4.4-28.1-6.5C356.9,50.8,301.9,42.7,246,42.3z"/>
			<path d="M246,42.3c55.9,0.3,110.8,8.4,165.3,20.5c9.4,2.1,18.7,4.5,28.1,6.5c2.4,0.5,3.1,1.6,3.3,3.9c2.2,32.9,1.6,65.7-2.9,98.4
				c-6.5,47-20.4,91.7-42.8,133.5c-24.8,46.4-57.9,86-98.9,118.9c-14.1,11.3-29.3,21.2-44,31.8c-2.8,2-5.1,2-8.2,0.1
				c-34.5-22-65.7-47.8-92.7-78.6c-39.8-45.3-67.3-97.1-82.9-155.3C58,176.4,54.2,129.7,56.8,82.4c0.2-3.2,0.5-6.5,0.5-9.7
				c0-2,0.9-2.7,2.8-3.2c45.2-12.1,90.9-21.2,137.6-24.8C213.8,43.4,229.9,43.1,246,42.3z M243.1,67.5c-23,0.1-54.6,2.4-85.8,8
				c-24.4,4.3-48.6,10-72.9,14.9c-2.3,0.5-3,1.5-3,3.7c0,3.6-0.5,7.2-0.6,10.8c-1.2,28.5,0.1,56.8,4.8,85
				c6.5,38.9,18.9,75.7,38,110.2c29.6,53.4,71.4,95.1,122.7,127.7c2.4,1.5,4.2,1.5,6.6-0.1c20.2-12.9,39.3-27.3,56.8-43.7
				c42.2-39.5,72.7-86.4,90.9-141.3c8.4-25.3,13.6-51.3,16.2-77.8c2.3-23.6,2.5-47.3,0.8-71c-0.2-2.2-0.9-3.2-3.1-3.7
				c-7.8-1.8-15.5-3.9-23.3-5.8C345.3,73.6,299,67.4,243.1,67.5z"/>
			<path class="st19" d="M243.1,67.5c55.9,0,102.2,6.2,148,17c7.8,1.8,15.5,4,23.3,5.8c2.3,0.5,3,1.5,3.1,3.7
				c1.7,23.7,1.5,47.3-0.8,71c-2.6,26.5-7.9,52.5-16.2,77.8c-18.2,54.9-48.7,101.9-90.9,141.3c-17.5,16.4-36.6,30.7-56.8,43.7
				c-2.4,1.5-4.2,1.6-6.6,0.1c-51.3-32.6-93.1-74.3-122.7-127.7c-19.1-34.5-31.5-71.4-38-110.2c-4.7-28.2-5.9-56.5-4.8-85
				c0.1-3.6,0.6-7.2,0.6-10.8c0-2.2,0.8-3.2,3-3.7c24.3-5,48.5-10.6,72.9-14.9C188.5,69.9,220.1,67.5,243.1,67.5z"/>
		</g>
	</g>
	<rect x="13.5" y="161.2" class="st2" width="473.6" height="174.1"/>
	<text transform="matrix(1 0 0 1 140.1167 196.8843)"><tspan x="0" y="0" class="st3 st4 st20">HULL</tspan><tspan x="18" y="97.2" class="st3 st4 st20">CITY</tspan></text>
</g>
<g id="Everton_FC">
	<g id="Shield_10_">
		<g>
			<path class="st0" d="M246,42.3c-16.1,0.7-32.3,1.1-48.3,2.3C151,48.3,105.3,57.4,60.1,69.5c-1.9,0.5-2.8,1.2-2.8,3.2
				c-0.1,3.2-0.4,6.5-0.5,9.7c-2.6,47.3,1.3,94,13.5,139.8c15.6,58.2,43.1,110,82.9,155.3c27,30.8,58.2,56.6,92.7,78.6
				c3,1.9,5.4,2,8.2-0.1c14.7-10.6,29.9-20.5,44-31.8c40.9-32.9,74.1-72.5,98.9-118.9c22.4-41.9,36.3-86.5,42.8-133.5
				c4.5-32.7,5.1-65.5,2.9-98.4c-0.2-2.3-0.8-3.4-3.3-3.9c-9.4-2-18.7-4.4-28.1-6.5C356.9,50.8,301.9,42.7,246,42.3z"/>
			<path d="M246,42.3c55.9,0.3,110.8,8.4,165.3,20.5c9.4,2.1,18.7,4.5,28.1,6.5c2.4,0.5,3.1,1.6,3.3,3.9c2.2,32.9,1.6,65.7-2.9,98.4
				c-6.5,47-20.4,91.7-42.8,133.5c-24.8,46.4-57.9,86-98.9,118.9c-14.1,11.3-29.3,21.2-44,31.8c-2.8,2-5.1,2-8.2,0.1
				c-34.5-22-65.7-47.8-92.7-78.6c-39.8-45.3-67.3-97.1-82.9-155.3C58,176.4,54.2,129.7,56.8,82.4c0.2-3.2,0.5-6.5,0.5-9.7
				c0-2,0.9-2.7,2.8-3.2c45.2-12.1,90.9-21.2,137.6-24.8C213.8,43.4,229.9,43.1,246,42.3z M243.1,67.5c-23,0.1-54.6,2.4-85.8,8
				c-24.4,4.3-48.6,10-72.9,14.9c-2.3,0.5-3,1.5-3,3.7c0,3.6-0.5,7.2-0.6,10.8c-1.2,28.5,0.1,56.8,4.8,85
				c6.5,38.9,18.9,75.7,38,110.2c29.6,53.4,71.4,95.1,122.7,127.7c2.4,1.5,4.2,1.5,6.6-0.1c20.2-12.9,39.3-27.3,56.8-43.7
				c42.2-39.5,72.7-86.4,90.9-141.3c8.4-25.3,13.6-51.3,16.2-77.8c2.3-23.6,2.5-47.3,0.8-71c-0.2-2.2-0.9-3.2-3.1-3.7
				c-7.8-1.8-15.5-3.9-23.3-5.8C345.3,73.6,299,67.4,243.1,67.5z"/>
			<path class="st6" d="M243.1,67.5c55.9,0,102.2,6.2,148,17c7.8,1.8,15.5,4,23.3,5.8c2.3,0.5,3,1.5,3.1,3.7
				c1.7,23.7,1.5,47.3-0.8,71c-2.6,26.5-7.9,52.5-16.2,77.8c-18.2,54.9-48.7,101.9-90.9,141.3c-17.5,16.4-36.6,30.7-56.8,43.7
				c-2.4,1.5-4.2,1.6-6.6,0.1c-51.3-32.6-93.1-74.3-122.7-127.7c-19.1-34.5-31.5-71.4-38-110.2c-4.7-28.2-5.9-56.5-4.8-85
				c0.1-3.6,0.6-7.2,0.6-10.8c0-2.2,0.8-3.2,3-3.7c24.3-5,48.5-10.6,72.9-14.9C188.5,69.9,220.1,67.5,243.1,67.5z"/>
		</g>
	</g>
	<rect x="12.5" y="161.2" class="st2" width="473.6" height="174.1"/>
	<text transform="matrix(1 0 0 1 95.3232 188.9644)" class="st3 st4 st9">EVERTON</text>
</g>
<g id="Crystal_Palace_FC">
	<circle class="st10" cx="250" cy="250" r="202"/>
	<rect x="12.5" y="185.2" class="st2" width="473.6" height="174.1"/>
	<text transform="matrix(1 0 0 1 104.1123 212.9644)"><tspan x="0" y="0" class="st3 st4 st9">CRYSTAL</tspan><tspan x="19.2" y="75.6" class="st3 st4 st9">PALACE</tspan></text>
</g>
<g id="Chelsea_FC">
	<circle class="st10" cx="250" cy="250" r="202"/>
	<rect x="12.5" y="233.2" class="st2" width="473.6" height="174.1"/>
	<text transform="matrix(1 0 0 1 65.3672 267.124)" class="st3 st4 st21">CHELSEA</text>
</g>
<g id="Burnley_FC">
	<g id="Shield_11_">
		<g>
			<path class="st0" d="M246,42.3c-16.1,0.7-32.3,1.1-48.3,2.3C151,48.3,105.3,57.4,60.1,69.5c-1.9,0.5-2.8,1.2-2.8,3.2
				c-0.1,3.2-0.4,6.5-0.5,9.7c-2.6,47.3,1.3,94,13.5,139.8c15.6,58.2,43.1,110,82.9,155.3c27,30.8,58.2,56.6,92.7,78.6
				c3,1.9,5.4,2,8.2-0.1c14.7-10.6,29.9-20.5,44-31.8c40.9-32.9,74.1-72.5,98.9-118.9c22.4-41.9,36.3-86.5,42.8-133.5
				c4.5-32.7,5.1-65.5,2.9-98.4c-0.2-2.3-0.8-3.4-3.3-3.9c-9.4-2-18.7-4.4-28.1-6.5C356.9,50.8,301.9,42.7,246,42.3z"/>
			<path d="M246,42.3c55.9,0.3,110.8,8.4,165.3,20.5c9.4,2.1,18.7,4.5,28.1,6.5c2.4,0.5,3.1,1.6,3.3,3.9c2.2,32.9,1.6,65.7-2.9,98.4
				c-6.5,47-20.4,91.7-42.8,133.5c-24.8,46.4-57.9,86-98.9,118.9c-14.1,11.3-29.3,21.2-44,31.8c-2.8,2-5.1,2-8.2,0.1
				c-34.5-22-65.7-47.8-92.7-78.6c-39.8-45.3-67.3-97.1-82.9-155.3C58,176.4,54.2,129.7,56.8,82.4c0.2-3.2,0.5-6.5,0.5-9.7
				c0-2,0.9-2.7,2.8-3.2c45.2-12.1,90.9-21.2,137.6-24.8C213.8,43.4,229.9,43.1,246,42.3z M243.1,67.5c-23,0.1-54.6,2.4-85.8,8
				c-24.4,4.3-48.6,10-72.9,14.9c-2.3,0.5-3,1.5-3,3.7c0,3.6-0.5,7.2-0.6,10.8c-1.2,28.5,0.1,56.8,4.8,85
				c6.5,38.9,18.9,75.7,38,110.2c29.6,53.4,71.4,95.1,122.7,127.7c2.4,1.5,4.2,1.5,6.6-0.1c20.2-12.9,39.3-27.3,56.8-43.7
				c42.2-39.5,72.7-86.4,90.9-141.3c8.4-25.3,13.6-51.3,16.2-77.8c2.3-23.6,2.5-47.3,0.8-71c-0.2-2.2-0.9-3.2-3.1-3.7
				c-7.8-1.8-15.5-3.9-23.3-5.8C345.3,73.6,299,67.4,243.1,67.5z"/>
			<path class="st6" d="M243.1,67.5c55.9,0,102.2,6.2,148,17c7.8,1.8,15.5,4,23.3,5.8c2.3,0.5,3,1.5,3.1,3.7
				c1.7,23.7,1.5,47.3-0.8,71c-2.6,26.5-7.9,52.5-16.2,77.8c-18.2,54.9-48.7,101.9-90.9,141.3c-17.5,16.4-36.6,30.7-56.8,43.7
				c-2.4,1.5-4.2,1.6-6.6,0.1c-51.3-32.6-93.1-74.3-122.7-127.7c-19.1-34.5-31.5-71.4-38-110.2c-4.7-28.2-5.9-56.5-4.8-85
				c0.1-3.6,0.6-7.2,0.6-10.8c0-2.2,0.8-3.2,3-3.7c24.3-5,48.5-10.6,72.9-14.9C188.5,69.9,220.1,67.5,243.1,67.5z"/>
		</g>
	</g>
	<rect x="22.5" y="146.2" class="st2" width="473.6" height="174.1"/>
	<text transform="matrix(1 0 0 1 122.8057 173.9644)" class="st3 st4 st9">Burnley</text>
</g>
<g id="AFC_Bournemouth">
	<g id="Shield_12_">
		<g>
			<path class="st0" d="M246,42.3c-16.1,0.7-32.3,1.1-48.3,2.3C151,48.3,105.3,57.4,60.1,69.5c-1.9,0.5-2.8,1.2-2.8,3.2
				c-0.1,3.2-0.4,6.5-0.5,9.7c-2.6,47.3,1.3,94,13.5,139.8c15.6,58.2,43.1,110,82.9,155.3c27,30.8,58.2,56.6,92.7,78.6
				c3,1.9,5.4,2,8.2-0.1c14.7-10.6,29.9-20.5,44-31.8c40.9-32.9,74.1-72.5,98.9-118.9c22.4-41.9,36.3-86.5,42.8-133.5
				c4.5-32.7,5.1-65.5,2.9-98.4c-0.2-2.3-0.8-3.4-3.3-3.9c-9.4-2-18.7-4.4-28.1-6.5C356.9,50.8,301.9,42.7,246,42.3z"/>
			<path d="M246,42.3c55.9,0.3,110.8,8.4,165.3,20.5c9.4,2.1,18.7,4.5,28.1,6.5c2.4,0.5,3.1,1.6,3.3,3.9c2.2,32.9,1.6,65.7-2.9,98.4
				c-6.5,47-20.4,91.7-42.8,133.5c-24.8,46.4-57.9,86-98.9,118.9c-14.1,11.3-29.3,21.2-44,31.8c-2.8,2-5.1,2-8.2,0.1
				c-34.5-22-65.7-47.8-92.7-78.6c-39.8-45.3-67.3-97.1-82.9-155.3C58,176.4,54.2,129.7,56.8,82.4c0.2-3.2,0.5-6.5,0.5-9.7
				c0-2,0.9-2.7,2.8-3.2c45.2-12.1,90.9-21.2,137.6-24.8C213.8,43.4,229.9,43.1,246,42.3z M243.1,67.5c-23,0.1-54.6,2.4-85.8,8
				c-24.4,4.3-48.6,10-72.9,14.9c-2.3,0.5-3,1.5-3,3.7c0,3.6-0.5,7.2-0.6,10.8c-1.2,28.5,0.1,56.8,4.8,85
				c6.5,38.9,18.9,75.7,38,110.2c29.6,53.4,71.4,95.1,122.7,127.7c2.4,1.5,4.2,1.5,6.6-0.1c20.2-12.9,39.3-27.3,56.8-43.7
				c42.2-39.5,72.7-86.4,90.9-141.3c8.4-25.3,13.6-51.3,16.2-77.8c2.3-23.6,2.5-47.3,0.8-71c-0.2-2.2-0.9-3.2-3.1-3.7
				c-7.8-1.8-15.5-3.9-23.3-5.8C345.3,73.6,299,67.4,243.1,67.5z"/>
			<path class="st0" d="M243.1,67.5c55.9,0,102.2,6.2,148,17c7.8,1.8,15.5,4,23.3,5.8c2.3,0.5,3,1.5,3.1,3.7
				c1.7,23.7,1.5,47.3-0.8,71c-2.6,26.5-7.9,52.5-16.2,77.8c-18.2,54.9-48.7,101.9-90.9,141.3c-17.5,16.4-36.6,30.7-56.8,43.7
				c-2.4,1.5-4.2,1.6-6.6,0.1c-51.3-32.6-93.1-74.3-122.7-127.7c-19.1-34.5-31.5-71.4-38-110.2c-4.7-28.2-5.9-56.5-4.8-85
				c0.1-3.6,0.6-7.2,0.6-10.8c0-2.2,0.8-3.2,3-3.7c24.3-5,48.5-10.6,72.9-14.9C188.5,69.9,220.1,67.5,243.1,67.5z"/>
		</g>
	</g>
	<rect x="12.5" y="96.2" class="st2" width="473.6" height="174.1"/>
	<text transform="matrix(1 0 0 1 186.3574 123.9644)"><tspan x="0" y="0" class="st3 st4 st9">AFC</tspan><tspan x="-99.2" y="48" class="st3 st4 st14">BOURNEMOUTH</tspan></text>
</g>
<g id="Arsenal_FC">
	<g id="Shield_13_">
		<g>
			<path class="st0" d="M246,42.3c-16.1,0.7-32.3,1.1-48.3,2.3C151,48.3,105.3,57.4,60.1,69.5c-1.9,0.5-2.8,1.2-2.8,3.2
				c-0.1,3.2-0.4,6.5-0.5,9.7c-2.6,47.3,1.3,94,13.5,139.8c15.6,58.2,43.1,110,82.9,155.3c27,30.8,58.2,56.6,92.7,78.6
				c3,1.9,5.4,2,8.2-0.1c14.7-10.6,29.9-20.5,44-31.8c40.9-32.9,74.1-72.5,98.9-118.9c22.4-41.9,36.3-86.5,42.8-133.5
				c4.5-32.7,5.1-65.5,2.9-98.4c-0.2-2.3-0.8-3.4-3.3-3.9c-9.4-2-18.7-4.4-28.1-6.5C356.9,50.8,301.9,42.7,246,42.3z"/>
			<path d="M246,42.3c55.9,0.3,110.8,8.4,165.3,20.5c9.4,2.1,18.7,4.5,28.1,6.5c2.4,0.5,3.1,1.6,3.3,3.9c2.2,32.9,1.6,65.7-2.9,98.4
				c-6.5,47-20.4,91.7-42.8,133.5c-24.8,46.4-57.9,86-98.9,118.9c-14.1,11.3-29.3,21.2-44,31.8c-2.8,2-5.1,2-8.2,0.1
				c-34.5-22-65.7-47.8-92.7-78.6c-39.8-45.3-67.3-97.1-82.9-155.3C58,176.4,54.2,129.7,56.8,82.4c0.2-3.2,0.5-6.5,0.5-9.7
				c0-2,0.9-2.7,2.8-3.2c45.2-12.1,90.9-21.2,137.6-24.8C213.8,43.4,229.9,43.1,246,42.3z M243.1,67.5c-23,0.1-54.6,2.4-85.8,8
				c-24.4,4.3-48.6,10-72.9,14.9c-2.3,0.5-3,1.5-3,3.7c0,3.6-0.5,7.2-0.6,10.8c-1.2,28.5,0.1,56.8,4.8,85
				c6.5,38.9,18.9,75.7,38,110.2c29.6,53.4,71.4,95.1,122.7,127.7c2.4,1.5,4.2,1.5,6.6-0.1c20.2-12.9,39.3-27.3,56.8-43.7
				c42.2-39.5,72.7-86.4,90.9-141.3c8.4-25.3,13.6-51.3,16.2-77.8c2.3-23.6,2.5-47.3,0.8-71c-0.2-2.2-0.9-3.2-3.1-3.7
				c-7.8-1.8-15.5-3.9-23.3-5.8C345.3,73.6,299,67.4,243.1,67.5z"/>
			<path class="st0" d="M243.1,67.5c55.9,0,102.2,6.2,148,17c7.8,1.8,15.5,4,23.3,5.8c2.3,0.5,3,1.5,3.1,3.7
				c1.7,23.7,1.5,47.3-0.8,71c-2.6,26.5-7.9,52.5-16.2,77.8c-18.2,54.9-48.7,101.9-90.9,141.3c-17.5,16.4-36.6,30.7-56.8,43.7
				c-2.4,1.5-4.2,1.6-6.6,0.1c-51.3-32.6-93.1-74.3-122.7-127.7c-19.1-34.5-31.5-71.4-38-110.2c-4.7-28.2-5.9-56.5-4.8-85
				c0.1-3.6,0.6-7.2,0.6-10.8c0-2.2,0.8-3.2,3-3.7c24.3-5,48.5-10.6,72.9-14.9C188.5,69.9,220.1,67.5,243.1,67.5z"/>
		</g>
	</g>
	<rect x="17.5" y="154.2" class="st2" width="473.6" height="174.1"/>
	<text transform="matrix(1 0 0 1 103.8198 181.9644)" class="st3 st4 st9">ARSENAL</text>
</g>
</svg>
